<svg width="16" height="14" viewBox="0 0 16 14" fill="none" xmlns="http://www.w3.org/2000/svg">
<path d="M13.545 1.907C12.5075 1.43087 11.4127 1.09105 10.288 0.896004C10.2778 0.894288 10.2673 0.89577 10.258 0.900247C10.2487 0.904724 10.241 0.911975 10.236 0.921004C10.095 1.171 9.939 1.498 9.83 1.754C8.61761 1.57001 7.38439 1.57001 6.172 1.754C6.05041 1.46882 5.91286 1.19072 5.76 0.921004C5.75487 0.912074 5.74716 0.904906 5.73788 0.900444C5.72859 0.895981 5.71818 0.894434 5.708 0.896004C4.583 1.09 3.488 1.43 2.451 1.907C2.44213 1.91039 2.4347 1.91675 2.43 1.925C0.356001 5.024 -0.212999 8.047 0.0660011 11.032C0.0670011 11.046 0.076001 11.06 0.087001 11.069C1.29473 11.9636 2.64559 12.6467 4.082 13.089C4.09214 13.0922 4.10304 13.0921 4.11311 13.0887C4.12318 13.0853 4.1319 13.0787 4.138 13.07C4.446 12.65 4.72 12.207 4.956 11.741C4.96092 11.7314 4.9626 11.7205 4.9608 11.7098C4.959 11.6992 4.95381 11.6894 4.946 11.682C4.94083 11.6771 4.9347 11.6734 4.928 11.671C4.49716 11.5054 4.0799 11.3065 3.68 11.076C3.66883 11.0697 3.66052 11.0593 3.6568 11.047C3.65308 11.0347 3.65422 11.0215 3.66 11.01C3.6634 11.0026 3.66855 10.996 3.675 10.991C3.759 10.928 3.843 10.862 3.923 10.796C3.93007 10.7903 3.93855 10.7867 3.94753 10.7854C3.95651 10.7842 3.96566 10.7854 3.974 10.789C6.593 11.985 9.428 11.985 12.015 10.789C12.0236 10.7853 12.0331 10.7839 12.0425 10.7852C12.0518 10.7864 12.0606 10.7901 12.068 10.796C12.148 10.862 12.232 10.928 12.316 10.991C12.3228 10.996 12.3283 11.0026 12.3319 11.0102C12.3356 11.0178 12.3373 11.0262 12.3369 11.0346C12.3365 11.043 12.334 11.0512 12.3296 11.0584C12.3253 11.0657 12.3192 11.0717 12.312 11.076C11.913 11.3086 11.4952 11.5073 11.063 11.67C11.0561 11.6725 11.0498 11.6765 11.0447 11.6817C11.0395 11.6868 11.0355 11.6931 11.033 11.7C11.0307 11.7067 11.0298 11.7138 11.0303 11.7208C11.0308 11.7279 11.0327 11.7347 11.036 11.741C11.276 12.206 11.551 12.65 11.853 13.07C11.8591 13.0787 11.8678 13.0853 11.8779 13.0887C11.888 13.0921 11.8989 13.0922 11.909 13.089C13.3478 12.648 14.7009 11.9649 15.91 11.069C15.9161 11.0648 15.9211 11.0593 15.9247 11.0529C15.9284 11.0465 15.9305 11.0394 15.931 11.032C16.265 7.581 15.372 4.583 13.565 1.926C13.5632 1.92162 13.5605 1.91766 13.557 1.91438C13.5536 1.91111 13.5495 1.9086 13.545 1.907V1.907ZM5.347 9.214C4.558 9.214 3.909 8.49 3.909 7.602C3.909 6.713 4.546 5.989 5.347 5.989C6.154 5.989 6.797 6.719 6.785 7.602C6.785 8.49 6.148 9.214 5.347 9.214ZM10.663 9.214C9.875 9.214 9.225 8.49 9.225 7.602C9.225 6.713 9.862 5.989 10.663 5.989C11.47 5.989 12.114 6.719 12.101 7.602C12.101 8.49 11.47 9.214 10.663 9.214Z" fill="#FFFF00"/>
</svg>
