<svg width="16" height="13" viewBox="0 0 16 13" fill="none" xmlns="http://www.w3.org/2000/svg">
<path d="M5.026 13C11.064 13 14.367 7.99701 14.367 3.66601C14.367 3.52601 14.367 3.38401 14.361 3.24401C15.0041 2.77849 15.5591 2.20216 16 1.54201C15.3993 1.80686 14.7628 1.98141 14.111 2.06001C14.7975 1.64964 15.3117 1.00398 15.558 0.243006C14.913 0.625131 14.207 0.89338 13.471 1.03601C12.9762 0.50903 12.3214 0.159924 11.6081 0.042764C10.8948 -0.0743963 10.1627 0.046928 9.52534 0.387944C8.88796 0.72896 8.38081 1.27064 8.08245 1.92907C7.78409 2.5875 7.71118 3.32594 7.875 4.03001C6.56974 3.96456 5.29282 3.62547 4.12704 3.03475C2.96127 2.44402 1.93268 1.61485 1.108 0.601007C0.68934 1.32409 0.561574 2.17941 0.750646 2.99327C0.939718 3.80714 1.43145 4.51854 2.126 4.98301C1.60554 4.96532 1.09652 4.82557 0.64 4.57501V4.62001C0.640897 5.37749 0.903307 6.11143 1.38287 6.69777C1.86244 7.28411 2.52975 7.68688 3.272 7.83801C2.99026 7.91562 2.69923 7.95431 2.407 7.95301C2.20098 7.95363 1.99538 7.93454 1.793 7.89601C2.00279 8.54806 2.41127 9.11817 2.96125 9.52648C3.51122 9.93479 4.17513 10.1609 4.86 10.173C3.69656 11.0868 2.2594 11.5824 0.78 11.58C0.519321 11.5811 0.258823 11.5661 0 11.535C1.50151 12.4923 3.2453 13.0006 5.026 13V13Z" fill="#FFFF00"/>
</svg>
